<mxfile host="65bd71144e" pages="7">
    <diagram id="CwiBYZ6OncF4lGPpdWN4" name="Page-1">
        <mxGraphModel dx="461" dy="372" grid="0" gridSize="10" guides="1" tooltips="1" connect="1" arrows="1" fold="1" page="1" pageScale="1" pageWidth="827" pageHeight="1169" math="0" shadow="0">
            <root>
                <mxCell id="0"/>
                <mxCell id="1" parent="0"/>
                <mxCell id="2" value="5" style="ellipse;whiteSpace=wrap;html=1;aspect=fixed;" parent="1" vertex="1">
                    <mxGeometry x="354.19" y="100" width="30" height="30" as="geometry"/>
                </mxCell>
                <mxCell id="5" value="3" style="ellipse;whiteSpace=wrap;html=1;aspect=fixed;" parent="1" vertex="1">
                    <mxGeometry x="260" y="170" width="30" height="30" as="geometry"/>
                </mxCell>
                <mxCell id="7" value="" style="endArrow=none;html=1;entryX=0;entryY=1;entryDx=0;entryDy=0;exitX=1;exitY=0;exitDx=0;exitDy=0;" parent="1" source="5" target="2" edge="1">
                    <mxGeometry width="50" height="50" relative="1" as="geometry">
                        <mxPoint x="320" y="230" as="sourcePoint"/>
                        <mxPoint x="370" y="180" as="targetPoint"/>
                    </mxGeometry>
                </mxCell>
                <mxCell id="14" value="8" style="ellipse;whiteSpace=wrap;html=1;aspect=fixed;" parent="1" vertex="1">
                    <mxGeometry x="453.81" y="174" width="30" height="30" as="geometry"/>
                </mxCell>
                <mxCell id="15" value="" style="endArrow=none;html=1;entryX=1;entryY=1;entryDx=0;entryDy=0;exitX=0;exitY=0;exitDx=0;exitDy=0;" parent="1" source="14" target="2" edge="1">
                    <mxGeometry width="50" height="50" relative="1" as="geometry">
                        <mxPoint x="440" y="250" as="sourcePoint"/>
                        <mxPoint x="490" y="200" as="targetPoint"/>
                    </mxGeometry>
                </mxCell>
                <mxCell id="16" value="9" style="ellipse;whiteSpace=wrap;html=1;aspect=fixed;" parent="1" vertex="1">
                    <mxGeometry x="497.2033982822018" y="218.39339828220182" width="30" height="30" as="geometry"/>
                </mxCell>
                <mxCell id="17" value="" style="endArrow=none;html=1;entryX=1;entryY=1;entryDx=0;entryDy=0;exitX=0;exitY=0;exitDx=0;exitDy=0;" parent="1" source="16" target="14" edge="1">
                    <mxGeometry width="50" height="50" relative="1" as="geometry">
                        <mxPoint x="597.2033982822018" y="298.3933982822018" as="sourcePoint"/>
                        <mxPoint x="482.81" y="204" as="targetPoint"/>
                    </mxGeometry>
                </mxCell>
                <mxCell id="18" value="2" style="ellipse;whiteSpace=wrap;html=1;aspect=fixed;" parent="1" vertex="1">
                    <mxGeometry x="215.61" y="214.39339828220182" width="30" height="30" as="geometry"/>
                </mxCell>
                <mxCell id="19" value="" style="endArrow=none;html=1;entryX=0;entryY=1;entryDx=0;entryDy=0;exitX=1;exitY=0;exitDx=0;exitDy=0;" parent="1" source="18" target="5" edge="1">
                    <mxGeometry width="50" height="50" relative="1" as="geometry">
                        <mxPoint x="275.61" y="274.3933982822018" as="sourcePoint"/>
                        <mxPoint x="260.00339828220183" y="200" as="targetPoint"/>
                    </mxGeometry>
                </mxCell>
                <mxCell id="20" value="1" style="ellipse;whiteSpace=wrap;html=1;aspect=fixed;" parent="1" vertex="1">
                    <mxGeometry x="172" y="258.7833982822018" width="30" height="30" as="geometry"/>
                </mxCell>
                <mxCell id="21" value="" style="endArrow=none;html=1;entryX=0;entryY=1;entryDx=0;entryDy=0;exitX=1;exitY=0;exitDx=0;exitDy=0;" parent="1" source="20" target="18" edge="1">
                    <mxGeometry width="50" height="50" relative="1" as="geometry">
                        <mxPoint x="232" y="318.7833982822018" as="sourcePoint"/>
                        <mxPoint x="216.39339828220182" y="244.39" as="targetPoint"/>
                    </mxGeometry>
                </mxCell>
                <mxCell id="22" value="4" style="ellipse;whiteSpace=wrap;html=1;aspect=fixed;" parent="1" vertex="1">
                    <mxGeometry x="304.3933982822018" y="214.39339828220182" width="30" height="30" as="geometry"/>
                </mxCell>
                <mxCell id="23" value="" style="endArrow=none;html=1;entryX=1;entryY=1;entryDx=0;entryDy=0;exitX=0;exitY=0;exitDx=0;exitDy=0;" parent="1" source="22" target="5" edge="1">
                    <mxGeometry width="50" height="50" relative="1" as="geometry">
                        <mxPoint x="404.3933982822018" y="294.3933982822018" as="sourcePoint"/>
                        <mxPoint x="290" y="200" as="targetPoint"/>
                    </mxGeometry>
                </mxCell>
                <mxCell id="24" value="7" style="ellipse;whiteSpace=wrap;html=1;aspect=fixed;" parent="1" vertex="1">
                    <mxGeometry x="409.42" y="218.39339828220182" width="30" height="30" as="geometry"/>
                </mxCell>
                <mxCell id="25" value="" style="endArrow=none;html=1;entryX=0;entryY=1;entryDx=0;entryDy=0;exitX=1;exitY=0;exitDx=0;exitDy=0;" parent="1" source="24" target="14" edge="1">
                    <mxGeometry width="50" height="50" relative="1" as="geometry">
                        <mxPoint x="469.42" y="278.3933982822018" as="sourcePoint"/>
                        <mxPoint x="453.81339828220183" y="204" as="targetPoint"/>
                    </mxGeometry>
                </mxCell>
                <mxCell id="26" value="6" style="ellipse;whiteSpace=wrap;html=1;aspect=fixed;" parent="1" vertex="1">
                    <mxGeometry x="367" y="262.7833982822018" width="30" height="30" as="geometry"/>
                </mxCell>
                <mxCell id="27" value="" style="endArrow=none;html=1;entryX=0;entryY=1;entryDx=0;entryDy=0;exitX=1;exitY=0;exitDx=0;exitDy=0;" parent="1" source="26" target="24" edge="1">
                    <mxGeometry width="50" height="50" relative="1" as="geometry">
                        <mxPoint x="427" y="322.7833982822018" as="sourcePoint"/>
                        <mxPoint x="411.3933982822018" y="248.39" as="targetPoint"/>
                    </mxGeometry>
                </mxCell>
            </root>
        </mxGraphModel>
    </diagram>
    <diagram id="0Bpguamv03kWJbMewDN2" name="Page-2">
        <mxGraphModel dx="448" dy="339" grid="0" gridSize="10" guides="1" tooltips="1" connect="1" arrows="1" fold="1" page="1" pageScale="1" pageWidth="827" pageHeight="1169" math="0" shadow="0">
            <root>
                <mxCell id="gEAQRJOBas2YKIp8XA9V-0"/>
                <mxCell id="gEAQRJOBas2YKIp8XA9V-1" parent="gEAQRJOBas2YKIp8XA9V-0"/>
                <mxCell id="cRvV9iRrK__zCoHBeLVT-0" value="" style="rounded=0;whiteSpace=wrap;html=1;dashed=1;" parent="gEAQRJOBas2YKIp8XA9V-1" vertex="1">
                    <mxGeometry x="362" y="161.39" width="182" height="136" as="geometry"/>
                </mxCell>
                <mxCell id="cRvV9iRrK__zCoHBeLVT-1" value="" style="rounded=0;whiteSpace=wrap;html=1;dashed=1;" parent="gEAQRJOBas2YKIp8XA9V-1" vertex="1">
                    <mxGeometry x="286.34" y="207.83999999999997" width="66.11" height="43.11" as="geometry"/>
                </mxCell>
                <mxCell id="cRvV9iRrK__zCoHBeLVT-2" value="5" style="ellipse;whiteSpace=wrap;html=1;aspect=fixed;" parent="gEAQRJOBas2YKIp8XA9V-1" vertex="1">
                    <mxGeometry x="354.19" y="100" width="30" height="30" as="geometry"/>
                </mxCell>
                <mxCell id="cRvV9iRrK__zCoHBeLVT-3" value="3" style="ellipse;whiteSpace=wrap;html=1;aspect=fixed;fillColor=#f8cecc;strokeColor=#b85450;" parent="gEAQRJOBas2YKIp8XA9V-1" vertex="1">
                    <mxGeometry x="260" y="170" width="30" height="30" as="geometry"/>
                </mxCell>
                <mxCell id="cRvV9iRrK__zCoHBeLVT-4" value="" style="endArrow=none;html=1;entryX=0;entryY=1;entryDx=0;entryDy=0;exitX=1;exitY=0;exitDx=0;exitDy=0;" parent="gEAQRJOBas2YKIp8XA9V-1" source="cRvV9iRrK__zCoHBeLVT-3" target="cRvV9iRrK__zCoHBeLVT-2" edge="1">
                    <mxGeometry width="50" height="50" relative="1" as="geometry">
                        <mxPoint x="320" y="230" as="sourcePoint"/>
                        <mxPoint x="370" y="180" as="targetPoint"/>
                    </mxGeometry>
                </mxCell>
                <mxCell id="cRvV9iRrK__zCoHBeLVT-5" value="8" style="ellipse;whiteSpace=wrap;html=1;aspect=fixed;" parent="gEAQRJOBas2YKIp8XA9V-1" vertex="1">
                    <mxGeometry x="454.81" y="165.39" width="30" height="30" as="geometry"/>
                </mxCell>
                <mxCell id="cRvV9iRrK__zCoHBeLVT-6" value="" style="endArrow=none;html=1;entryX=1;entryY=1;entryDx=0;entryDy=0;exitX=0;exitY=0;exitDx=0;exitDy=0;" parent="gEAQRJOBas2YKIp8XA9V-1" source="cRvV9iRrK__zCoHBeLVT-5" target="cRvV9iRrK__zCoHBeLVT-2" edge="1">
                    <mxGeometry width="50" height="50" relative="1" as="geometry">
                        <mxPoint x="440" y="250" as="sourcePoint"/>
                        <mxPoint x="490" y="200" as="targetPoint"/>
                    </mxGeometry>
                </mxCell>
                <mxCell id="cRvV9iRrK__zCoHBeLVT-7" value="9" style="ellipse;whiteSpace=wrap;html=1;aspect=fixed;" parent="gEAQRJOBas2YKIp8XA9V-1" vertex="1">
                    <mxGeometry x="498.2033982822018" y="209.7833982822018" width="30" height="30" as="geometry"/>
                </mxCell>
                <mxCell id="cRvV9iRrK__zCoHBeLVT-8" value="" style="endArrow=none;html=1;entryX=1;entryY=1;entryDx=0;entryDy=0;exitX=0;exitY=0;exitDx=0;exitDy=0;" parent="gEAQRJOBas2YKIp8XA9V-1" source="cRvV9iRrK__zCoHBeLVT-7" target="cRvV9iRrK__zCoHBeLVT-5" edge="1">
                    <mxGeometry width="50" height="50" relative="1" as="geometry">
                        <mxPoint x="598.2033982822018" y="289.7833982822018" as="sourcePoint"/>
                        <mxPoint x="483.81" y="195.39" as="targetPoint"/>
                    </mxGeometry>
                </mxCell>
                <mxCell id="cRvV9iRrK__zCoHBeLVT-9" value="2" style="ellipse;whiteSpace=wrap;html=1;aspect=fixed;" parent="gEAQRJOBas2YKIp8XA9V-1" vertex="1">
                    <mxGeometry x="215.61" y="214.39339828220182" width="30" height="30" as="geometry"/>
                </mxCell>
                <mxCell id="cRvV9iRrK__zCoHBeLVT-10" value="" style="endArrow=none;html=1;entryX=0;entryY=1;entryDx=0;entryDy=0;exitX=1;exitY=0;exitDx=0;exitDy=0;" parent="gEAQRJOBas2YKIp8XA9V-1" source="cRvV9iRrK__zCoHBeLVT-9" target="cRvV9iRrK__zCoHBeLVT-3" edge="1">
                    <mxGeometry width="50" height="50" relative="1" as="geometry">
                        <mxPoint x="275.61" y="274.3933982822018" as="sourcePoint"/>
                        <mxPoint x="260.00339828220183" y="200" as="targetPoint"/>
                    </mxGeometry>
                </mxCell>
                <mxCell id="cRvV9iRrK__zCoHBeLVT-11" value="1" style="ellipse;whiteSpace=wrap;html=1;aspect=fixed;" parent="gEAQRJOBas2YKIp8XA9V-1" vertex="1">
                    <mxGeometry x="172" y="258.7833982822018" width="30" height="30" as="geometry"/>
                </mxCell>
                <mxCell id="cRvV9iRrK__zCoHBeLVT-12" value="" style="endArrow=none;html=1;entryX=0;entryY=1;entryDx=0;entryDy=0;exitX=1;exitY=0;exitDx=0;exitDy=0;" parent="gEAQRJOBas2YKIp8XA9V-1" source="cRvV9iRrK__zCoHBeLVT-11" target="cRvV9iRrK__zCoHBeLVT-9" edge="1">
                    <mxGeometry width="50" height="50" relative="1" as="geometry">
                        <mxPoint x="232" y="318.7833982822018" as="sourcePoint"/>
                        <mxPoint x="216.39339828220182" y="244.39" as="targetPoint"/>
                    </mxGeometry>
                </mxCell>
                <mxCell id="cRvV9iRrK__zCoHBeLVT-13" value="4" style="ellipse;whiteSpace=wrap;html=1;aspect=fixed;" parent="gEAQRJOBas2YKIp8XA9V-1" vertex="1">
                    <mxGeometry x="304.3933982822018" y="214.39339828220182" width="30" height="30" as="geometry"/>
                </mxCell>
                <mxCell id="cRvV9iRrK__zCoHBeLVT-14" value="" style="endArrow=none;html=1;entryX=1;entryY=1;entryDx=0;entryDy=0;exitX=0;exitY=0;exitDx=0;exitDy=0;" parent="gEAQRJOBas2YKIp8XA9V-1" source="cRvV9iRrK__zCoHBeLVT-13" target="cRvV9iRrK__zCoHBeLVT-3" edge="1">
                    <mxGeometry width="50" height="50" relative="1" as="geometry">
                        <mxPoint x="404.3933982822018" y="294.3933982822018" as="sourcePoint"/>
                        <mxPoint x="290" y="200" as="targetPoint"/>
                    </mxGeometry>
                </mxCell>
                <mxCell id="cRvV9iRrK__zCoHBeLVT-15" value="7" style="ellipse;whiteSpace=wrap;html=1;aspect=fixed;" parent="gEAQRJOBas2YKIp8XA9V-1" vertex="1">
                    <mxGeometry x="410.42" y="209.7833982822018" width="30" height="30" as="geometry"/>
                </mxCell>
                <mxCell id="cRvV9iRrK__zCoHBeLVT-16" value="" style="endArrow=none;html=1;entryX=0;entryY=1;entryDx=0;entryDy=0;exitX=1;exitY=0;exitDx=0;exitDy=0;" parent="gEAQRJOBas2YKIp8XA9V-1" source="cRvV9iRrK__zCoHBeLVT-15" target="cRvV9iRrK__zCoHBeLVT-5" edge="1">
                    <mxGeometry width="50" height="50" relative="1" as="geometry">
                        <mxPoint x="470.42" y="269.7833982822018" as="sourcePoint"/>
                        <mxPoint x="454.81339828220183" y="195.39" as="targetPoint"/>
                    </mxGeometry>
                </mxCell>
                <mxCell id="cRvV9iRrK__zCoHBeLVT-17" value="6" style="ellipse;whiteSpace=wrap;html=1;aspect=fixed;" parent="gEAQRJOBas2YKIp8XA9V-1" vertex="1">
                    <mxGeometry x="368" y="254.1733982822018" width="30" height="30" as="geometry"/>
                </mxCell>
                <mxCell id="cRvV9iRrK__zCoHBeLVT-18" value="" style="endArrow=none;html=1;entryX=0;entryY=1;entryDx=0;entryDy=0;exitX=1;exitY=0;exitDx=0;exitDy=0;" parent="gEAQRJOBas2YKIp8XA9V-1" source="cRvV9iRrK__zCoHBeLVT-17" target="cRvV9iRrK__zCoHBeLVT-15" edge="1">
                    <mxGeometry width="50" height="50" relative="1" as="geometry">
                        <mxPoint x="428" y="314.1733982822018" as="sourcePoint"/>
                        <mxPoint x="412.3933982822018" y="239.77999999999997" as="targetPoint"/>
                    </mxGeometry>
                </mxCell>
                <mxCell id="cRvV9iRrK__zCoHBeLVT-19" value="A" style="text;html=1;strokeColor=none;fillColor=none;align=center;verticalAlign=middle;whiteSpace=wrap;rounded=0;dashed=1;" parent="gEAQRJOBas2YKIp8XA9V-1" vertex="1">
                    <mxGeometry x="286.34" y="234" width="18.66" height="16.95" as="geometry"/>
                </mxCell>
                <mxCell id="cRvV9iRrK__zCoHBeLVT-20" value="B" style="text;html=1;strokeColor=none;fillColor=none;align=center;verticalAlign=middle;whiteSpace=wrap;rounded=0;dashed=1;" parent="gEAQRJOBas2YKIp8XA9V-1" vertex="1">
                    <mxGeometry x="520" y="276.39" width="24" height="21" as="geometry"/>
                </mxCell>
            </root>
        </mxGraphModel>
    </diagram>
    <diagram id="kSHbh0H9_z2leEGQAmxk" name="Page-3">
        <mxGraphModel dx="461" dy="510" grid="0" gridSize="10" guides="1" tooltips="1" connect="1" arrows="1" fold="1" page="1" pageScale="1" pageWidth="827" pageHeight="1169" math="0" shadow="0">
            <root>
                <mxCell id="rluINJ6AaRK7yTagraDN-0"/>
                <mxCell id="rluINJ6AaRK7yTagraDN-1" parent="rluINJ6AaRK7yTagraDN-0"/>
                <mxCell id="3AEb5yjj_FTV9U8g3lb--0" value="" style="rounded=0;whiteSpace=wrap;html=1;dashed=1;" parent="rluINJ6AaRK7yTagraDN-1" vertex="1">
                    <mxGeometry x="335" y="544.78" width="182" height="136" as="geometry"/>
                </mxCell>
                <mxCell id="3AEb5yjj_FTV9U8g3lb--2" value="5" style="ellipse;whiteSpace=wrap;html=1;aspect=fixed;" parent="rluINJ6AaRK7yTagraDN-1" vertex="1">
                    <mxGeometry x="376" y="500.39" width="30" height="30" as="geometry"/>
                </mxCell>
                <mxCell id="3AEb5yjj_FTV9U8g3lb--3" value="3" style="ellipse;whiteSpace=wrap;html=1;aspect=fixed;fillColor=#f8cecc;strokeColor=#b85450;" parent="rluINJ6AaRK7yTagraDN-1" vertex="1">
                    <mxGeometry x="325" y="456" width="30" height="30" as="geometry"/>
                </mxCell>
                <mxCell id="3AEb5yjj_FTV9U8g3lb--4" value="" style="endArrow=none;html=1;entryX=0;entryY=0;entryDx=0;entryDy=0;exitX=1;exitY=1;exitDx=0;exitDy=0;" parent="rluINJ6AaRK7yTagraDN-1" source="3AEb5yjj_FTV9U8g3lb--3" target="3AEb5yjj_FTV9U8g3lb--2" edge="1">
                    <mxGeometry width="50" height="50" relative="1" as="geometry">
                        <mxPoint x="385" y="516" as="sourcePoint"/>
                        <mxPoint x="435" y="466" as="targetPoint"/>
                    </mxGeometry>
                </mxCell>
                <mxCell id="3AEb5yjj_FTV9U8g3lb--5" value="8" style="ellipse;whiteSpace=wrap;html=1;aspect=fixed;" parent="rluINJ6AaRK7yTagraDN-1" vertex="1">
                    <mxGeometry x="427.81" y="548.78" width="30" height="30" as="geometry"/>
                </mxCell>
                <mxCell id="3AEb5yjj_FTV9U8g3lb--6" value="" style="endArrow=none;html=1;entryX=1;entryY=1;entryDx=0;entryDy=0;exitX=0;exitY=0;exitDx=0;exitDy=0;" parent="rluINJ6AaRK7yTagraDN-1" source="3AEb5yjj_FTV9U8g3lb--5" target="3AEb5yjj_FTV9U8g3lb--2" edge="1">
                    <mxGeometry width="50" height="50" relative="1" as="geometry">
                        <mxPoint x="461.81" y="650.39" as="sourcePoint"/>
                        <mxPoint x="511.81" y="600.39" as="targetPoint"/>
                    </mxGeometry>
                </mxCell>
                <mxCell id="3AEb5yjj_FTV9U8g3lb--7" value="9" style="ellipse;whiteSpace=wrap;html=1;aspect=fixed;" parent="rluINJ6AaRK7yTagraDN-1" vertex="1">
                    <mxGeometry x="471.2033982822018" y="593.1733982822018" width="30" height="30" as="geometry"/>
                </mxCell>
                <mxCell id="3AEb5yjj_FTV9U8g3lb--8" value="" style="endArrow=none;html=1;entryX=1;entryY=1;entryDx=0;entryDy=0;exitX=0;exitY=0;exitDx=0;exitDy=0;" parent="rluINJ6AaRK7yTagraDN-1" source="3AEb5yjj_FTV9U8g3lb--7" target="3AEb5yjj_FTV9U8g3lb--5" edge="1">
                    <mxGeometry width="50" height="50" relative="1" as="geometry">
                        <mxPoint x="571.2033982822018" y="673.1733982822018" as="sourcePoint"/>
                        <mxPoint x="456.81" y="578.78" as="targetPoint"/>
                    </mxGeometry>
                </mxCell>
                <mxCell id="3AEb5yjj_FTV9U8g3lb--9" value="2" style="ellipse;whiteSpace=wrap;html=1;aspect=fixed;" parent="rluINJ6AaRK7yTagraDN-1" vertex="1">
                    <mxGeometry x="280.61" y="500.3933982822018" width="30" height="30" as="geometry"/>
                </mxCell>
                <mxCell id="3AEb5yjj_FTV9U8g3lb--10" value="" style="endArrow=none;html=1;entryX=0;entryY=1;entryDx=0;entryDy=0;exitX=1;exitY=0;exitDx=0;exitDy=0;" parent="rluINJ6AaRK7yTagraDN-1" source="3AEb5yjj_FTV9U8g3lb--9" target="3AEb5yjj_FTV9U8g3lb--3" edge="1">
                    <mxGeometry width="50" height="50" relative="1" as="geometry">
                        <mxPoint x="340.61" y="560.3933982822018" as="sourcePoint"/>
                        <mxPoint x="325.00339828220183" y="486" as="targetPoint"/>
                    </mxGeometry>
                </mxCell>
                <mxCell id="3AEb5yjj_FTV9U8g3lb--11" value="1" style="ellipse;whiteSpace=wrap;html=1;aspect=fixed;" parent="rluINJ6AaRK7yTagraDN-1" vertex="1">
                    <mxGeometry x="237" y="544.7833982822018" width="30" height="30" as="geometry"/>
                </mxCell>
                <mxCell id="3AEb5yjj_FTV9U8g3lb--12" value="" style="endArrow=none;html=1;entryX=0;entryY=1;entryDx=0;entryDy=0;exitX=1;exitY=0;exitDx=0;exitDy=0;" parent="rluINJ6AaRK7yTagraDN-1" source="3AEb5yjj_FTV9U8g3lb--11" target="3AEb5yjj_FTV9U8g3lb--9" edge="1">
                    <mxGeometry width="50" height="50" relative="1" as="geometry">
                        <mxPoint x="297" y="604.7833982822018" as="sourcePoint"/>
                        <mxPoint x="281.3933982822018" y="530.39" as="targetPoint"/>
                    </mxGeometry>
                </mxCell>
                <mxCell id="3AEb5yjj_FTV9U8g3lb--15" value="7" style="ellipse;whiteSpace=wrap;html=1;aspect=fixed;" parent="rluINJ6AaRK7yTagraDN-1" vertex="1">
                    <mxGeometry x="383.42" y="593.1733982822018" width="30" height="30" as="geometry"/>
                </mxCell>
                <mxCell id="3AEb5yjj_FTV9U8g3lb--16" value="" style="endArrow=none;html=1;entryX=0;entryY=1;entryDx=0;entryDy=0;exitX=1;exitY=0;exitDx=0;exitDy=0;" parent="rluINJ6AaRK7yTagraDN-1" source="3AEb5yjj_FTV9U8g3lb--15" target="3AEb5yjj_FTV9U8g3lb--5" edge="1">
                    <mxGeometry width="50" height="50" relative="1" as="geometry">
                        <mxPoint x="443.42" y="653.1733982822018" as="sourcePoint"/>
                        <mxPoint x="427.81339828220183" y="578.78" as="targetPoint"/>
                    </mxGeometry>
                </mxCell>
                <mxCell id="3AEb5yjj_FTV9U8g3lb--17" value="6" style="ellipse;whiteSpace=wrap;html=1;aspect=fixed;" parent="rluINJ6AaRK7yTagraDN-1" vertex="1">
                    <mxGeometry x="341" y="637.5633982822018" width="30" height="30" as="geometry"/>
                </mxCell>
                <mxCell id="3AEb5yjj_FTV9U8g3lb--18" value="" style="endArrow=none;html=1;entryX=0;entryY=1;entryDx=0;entryDy=0;exitX=1;exitY=0;exitDx=0;exitDy=0;" parent="rluINJ6AaRK7yTagraDN-1" source="3AEb5yjj_FTV9U8g3lb--17" target="3AEb5yjj_FTV9U8g3lb--15" edge="1">
                    <mxGeometry width="50" height="50" relative="1" as="geometry">
                        <mxPoint x="401" y="697.5633982822018" as="sourcePoint"/>
                        <mxPoint x="385.3933982822018" y="623.17" as="targetPoint"/>
                    </mxGeometry>
                </mxCell>
                <mxCell id="3AEb5yjj_FTV9U8g3lb--20" value="B" style="text;html=1;strokeColor=none;fillColor=none;align=center;verticalAlign=middle;whiteSpace=wrap;rounded=0;dashed=1;" parent="rluINJ6AaRK7yTagraDN-1" vertex="1">
                    <mxGeometry x="479" y="655.78" width="60" height="30" as="geometry"/>
                </mxCell>
            </root>
        </mxGraphModel>
    </diagram>
    <diagram id="IeZ9xOf83spq73SVIo7a" name="Page-4">
        <mxGraphModel dx="461" dy="510" grid="0" gridSize="10" guides="1" tooltips="1" connect="1" arrows="1" fold="1" page="1" pageScale="1" pageWidth="827" pageHeight="1169" math="0" shadow="0">
            <root>
                <mxCell id="4qIja71GLGMfCADEavLU-0"/>
                <mxCell id="4qIja71GLGMfCADEavLU-1" parent="4qIja71GLGMfCADEavLU-0"/>
                <mxCell id="4qIja71GLGMfCADEavLU-2" value="" style="rounded=0;whiteSpace=wrap;html=1;dashed=1;" parent="4qIja71GLGMfCADEavLU-1" vertex="1">
                    <mxGeometry x="420" y="412.78" width="182" height="136" as="geometry"/>
                </mxCell>
                <mxCell id="4qIja71GLGMfCADEavLU-3" value="5" style="ellipse;whiteSpace=wrap;html=1;aspect=fixed;" parent="4qIja71GLGMfCADEavLU-1" vertex="1">
                    <mxGeometry x="413" y="338.39" width="30" height="30" as="geometry"/>
                </mxCell>
                <mxCell id="4qIja71GLGMfCADEavLU-4" value="3" style="ellipse;whiteSpace=wrap;html=1;aspect=fixed;fillColor=#f8cecc;strokeColor=#b85450;" parent="4qIja71GLGMfCADEavLU-1" vertex="1">
                    <mxGeometry x="362" y="294" width="30" height="30" as="geometry"/>
                </mxCell>
                <mxCell id="4qIja71GLGMfCADEavLU-5" value="" style="endArrow=none;html=1;entryX=0;entryY=0;entryDx=0;entryDy=0;exitX=1;exitY=1;exitDx=0;exitDy=0;" parent="4qIja71GLGMfCADEavLU-1" source="4qIja71GLGMfCADEavLU-4" target="4qIja71GLGMfCADEavLU-3" edge="1">
                    <mxGeometry width="50" height="50" relative="1" as="geometry">
                        <mxPoint x="422" y="354" as="sourcePoint"/>
                        <mxPoint x="472" y="304" as="targetPoint"/>
                    </mxGeometry>
                </mxCell>
                <mxCell id="4qIja71GLGMfCADEavLU-6" value="8" style="ellipse;whiteSpace=wrap;html=1;aspect=fixed;" parent="4qIja71GLGMfCADEavLU-1" vertex="1">
                    <mxGeometry x="512.81" y="416.78" width="30" height="30" as="geometry"/>
                </mxCell>
                <mxCell id="4qIja71GLGMfCADEavLU-7" value="" style="endArrow=none;html=1;entryX=1;entryY=1;entryDx=0;entryDy=0;exitX=0;exitY=0;exitDx=0;exitDy=0;" parent="4qIja71GLGMfCADEavLU-1" source="4qIja71GLGMfCADEavLU-6" target="4qIja71GLGMfCADEavLU-3" edge="1">
                    <mxGeometry width="50" height="50" relative="1" as="geometry">
                        <mxPoint x="498.81" y="488.39" as="sourcePoint"/>
                        <mxPoint x="548.81" y="438.39" as="targetPoint"/>
                    </mxGeometry>
                </mxCell>
                <mxCell id="4qIja71GLGMfCADEavLU-8" value="9" style="ellipse;whiteSpace=wrap;html=1;aspect=fixed;" parent="4qIja71GLGMfCADEavLU-1" vertex="1">
                    <mxGeometry x="556.2033982822018" y="461.1733982822018" width="30" height="30" as="geometry"/>
                </mxCell>
                <mxCell id="4qIja71GLGMfCADEavLU-9" value="" style="endArrow=none;html=1;entryX=1;entryY=1;entryDx=0;entryDy=0;exitX=0;exitY=0;exitDx=0;exitDy=0;" parent="4qIja71GLGMfCADEavLU-1" source="4qIja71GLGMfCADEavLU-8" target="4qIja71GLGMfCADEavLU-6" edge="1">
                    <mxGeometry width="50" height="50" relative="1" as="geometry">
                        <mxPoint x="656.2033982822018" y="541.1733982822018" as="sourcePoint"/>
                        <mxPoint x="541.81" y="446.78" as="targetPoint"/>
                    </mxGeometry>
                </mxCell>
                <mxCell id="4qIja71GLGMfCADEavLU-10" value="2" style="ellipse;whiteSpace=wrap;html=1;aspect=fixed;" parent="4qIja71GLGMfCADEavLU-1" vertex="1">
                    <mxGeometry x="317.61" y="338.3933982822018" width="30" height="30" as="geometry"/>
                </mxCell>
                <mxCell id="4qIja71GLGMfCADEavLU-11" value="" style="endArrow=none;html=1;entryX=0;entryY=1;entryDx=0;entryDy=0;exitX=1;exitY=0;exitDx=0;exitDy=0;" parent="4qIja71GLGMfCADEavLU-1" source="4qIja71GLGMfCADEavLU-10" target="4qIja71GLGMfCADEavLU-4" edge="1">
                    <mxGeometry width="50" height="50" relative="1" as="geometry">
                        <mxPoint x="377.61" y="398.3933982822018" as="sourcePoint"/>
                        <mxPoint x="362.00339828220183" y="324" as="targetPoint"/>
                    </mxGeometry>
                </mxCell>
                <mxCell id="4qIja71GLGMfCADEavLU-12" value="1" style="ellipse;whiteSpace=wrap;html=1;aspect=fixed;" parent="4qIja71GLGMfCADEavLU-1" vertex="1">
                    <mxGeometry x="274" y="382.7833982822018" width="30" height="30" as="geometry"/>
                </mxCell>
                <mxCell id="4qIja71GLGMfCADEavLU-13" value="" style="endArrow=none;html=1;entryX=0;entryY=1;entryDx=0;entryDy=0;exitX=1;exitY=0;exitDx=0;exitDy=0;" parent="4qIja71GLGMfCADEavLU-1" source="4qIja71GLGMfCADEavLU-12" target="4qIja71GLGMfCADEavLU-10" edge="1">
                    <mxGeometry width="50" height="50" relative="1" as="geometry">
                        <mxPoint x="334" y="442.7833982822018" as="sourcePoint"/>
                        <mxPoint x="318.3933982822018" y="368.39" as="targetPoint"/>
                    </mxGeometry>
                </mxCell>
                <mxCell id="4qIja71GLGMfCADEavLU-14" value="7" style="ellipse;whiteSpace=wrap;html=1;aspect=fixed;" parent="4qIja71GLGMfCADEavLU-1" vertex="1">
                    <mxGeometry x="468.42" y="461.1733982822018" width="30" height="30" as="geometry"/>
                </mxCell>
                <mxCell id="4qIja71GLGMfCADEavLU-15" value="" style="endArrow=none;html=1;entryX=0;entryY=1;entryDx=0;entryDy=0;exitX=1;exitY=0;exitDx=0;exitDy=0;" parent="4qIja71GLGMfCADEavLU-1" source="4qIja71GLGMfCADEavLU-14" target="4qIja71GLGMfCADEavLU-6" edge="1">
                    <mxGeometry width="50" height="50" relative="1" as="geometry">
                        <mxPoint x="528.4200000000001" y="521.1733982822018" as="sourcePoint"/>
                        <mxPoint x="512.8133982822019" y="446.78" as="targetPoint"/>
                    </mxGeometry>
                </mxCell>
                <mxCell id="4qIja71GLGMfCADEavLU-16" value="6" style="ellipse;whiteSpace=wrap;html=1;aspect=fixed;" parent="4qIja71GLGMfCADEavLU-1" vertex="1">
                    <mxGeometry x="426" y="505.5633982822018" width="30" height="30" as="geometry"/>
                </mxCell>
                <mxCell id="4qIja71GLGMfCADEavLU-17" value="" style="endArrow=none;html=1;entryX=0;entryY=1;entryDx=0;entryDy=0;exitX=1;exitY=0;exitDx=0;exitDy=0;" parent="4qIja71GLGMfCADEavLU-1" source="4qIja71GLGMfCADEavLU-16" target="4qIja71GLGMfCADEavLU-14" edge="1">
                    <mxGeometry width="50" height="50" relative="1" as="geometry">
                        <mxPoint x="486" y="565.5633982822018" as="sourcePoint"/>
                        <mxPoint x="470.3933982822018" y="491.16999999999996" as="targetPoint"/>
                    </mxGeometry>
                </mxCell>
                <mxCell id="4qIja71GLGMfCADEavLU-18" value="B" style="text;html=1;strokeColor=none;fillColor=none;align=center;verticalAlign=middle;whiteSpace=wrap;rounded=0;dashed=1;" parent="4qIja71GLGMfCADEavLU-1" vertex="1">
                    <mxGeometry x="564" y="523.78" width="60" height="30" as="geometry"/>
                </mxCell>
                <mxCell id="aYqJG33hjg5wjAAklTO1-0" value="" style="rounded=0;whiteSpace=wrap;html=1;dashed=1;" parent="4qIja71GLGMfCADEavLU-1" vertex="1">
                    <mxGeometry x="317.60999999999996" y="410.23" width="66.11" height="43.11" as="geometry"/>
                </mxCell>
                <mxCell id="aYqJG33hjg5wjAAklTO1-1" value="4" style="ellipse;whiteSpace=wrap;html=1;aspect=fixed;" parent="4qIja71GLGMfCADEavLU-1" vertex="1">
                    <mxGeometry x="335.66339828220185" y="416.7833982822018" width="30" height="30" as="geometry"/>
                </mxCell>
                <mxCell id="aYqJG33hjg5wjAAklTO1-2" value="" style="endArrow=none;html=1;entryX=0;entryY=1;entryDx=0;entryDy=0;exitX=1;exitY=0;exitDx=0;exitDy=0;" parent="4qIja71GLGMfCADEavLU-1" source="aYqJG33hjg5wjAAklTO1-1" target="4qIja71GLGMfCADEavLU-3" edge="1">
                    <mxGeometry width="50" height="50" relative="1" as="geometry">
                        <mxPoint x="462.36339828220184" y="493.7833982822018" as="sourcePoint"/>
                        <mxPoint x="343.5766017177982" y="394.99660171779817" as="targetPoint"/>
                    </mxGeometry>
                </mxCell>
                <mxCell id="2kSbWfDY7lLG662ZPZyl-0" value="A" style="text;html=1;strokeColor=none;fillColor=none;align=center;verticalAlign=middle;whiteSpace=wrap;rounded=0;dashed=1;" parent="4qIja71GLGMfCADEavLU-1" vertex="1">
                    <mxGeometry x="317.61" y="434.12" width="21" height="19.22" as="geometry"/>
                </mxCell>
            </root>
        </mxGraphModel>
    </diagram>
    <diagram id="8Th5AOSjQnYBtnfaongR" name="Page-5">
        <mxGraphModel dx="461" dy="510" grid="0" gridSize="10" guides="1" tooltips="1" connect="1" arrows="1" fold="1" page="1" pageScale="1" pageWidth="827" pageHeight="1169" math="0" shadow="0">
            <root>
                <mxCell id="f3HSBoVWFk1KG22zI1eR-0"/>
                <mxCell id="f3HSBoVWFk1KG22zI1eR-1" parent="f3HSBoVWFk1KG22zI1eR-0"/>
                <mxCell id="f3HSBoVWFk1KG22zI1eR-2" value="" style="rounded=0;whiteSpace=wrap;html=1;dashed=1;" parent="f3HSBoVWFk1KG22zI1eR-1" vertex="1">
                    <mxGeometry x="361" y="214" width="85" height="83" as="geometry"/>
                </mxCell>
                <mxCell id="f3HSBoVWFk1KG22zI1eR-3" value="" style="rounded=0;whiteSpace=wrap;html=1;dashed=1;" parent="f3HSBoVWFk1KG22zI1eR-1" vertex="1">
                    <mxGeometry x="164" y="163" width="175" height="134" as="geometry"/>
                </mxCell>
                <mxCell id="f3HSBoVWFk1KG22zI1eR-4" value="5" style="ellipse;whiteSpace=wrap;html=1;aspect=fixed;" parent="f3HSBoVWFk1KG22zI1eR-1" vertex="1">
                    <mxGeometry x="354.19" y="100" width="30" height="30" as="geometry"/>
                </mxCell>
                <mxCell id="f3HSBoVWFk1KG22zI1eR-5" value="3" style="ellipse;whiteSpace=wrap;html=1;aspect=fixed;" parent="f3HSBoVWFk1KG22zI1eR-1" vertex="1">
                    <mxGeometry x="260" y="170" width="30" height="30" as="geometry"/>
                </mxCell>
                <mxCell id="f3HSBoVWFk1KG22zI1eR-6" value="" style="endArrow=none;html=1;entryX=0;entryY=1;entryDx=0;entryDy=0;exitX=1;exitY=0;exitDx=0;exitDy=0;" parent="f3HSBoVWFk1KG22zI1eR-1" source="f3HSBoVWFk1KG22zI1eR-5" target="f3HSBoVWFk1KG22zI1eR-4" edge="1">
                    <mxGeometry width="50" height="50" relative="1" as="geometry">
                        <mxPoint x="320" y="230" as="sourcePoint"/>
                        <mxPoint x="370" y="180" as="targetPoint"/>
                    </mxGeometry>
                </mxCell>
                <mxCell id="f3HSBoVWFk1KG22zI1eR-7" value="8" style="ellipse;whiteSpace=wrap;html=1;aspect=fixed;fillColor=#f8cecc;strokeColor=#b85450;" parent="f3HSBoVWFk1KG22zI1eR-1" vertex="1">
                    <mxGeometry x="453.81" y="174" width="30" height="30" as="geometry"/>
                </mxCell>
                <mxCell id="f3HSBoVWFk1KG22zI1eR-8" value="" style="endArrow=none;html=1;entryX=1;entryY=1;entryDx=0;entryDy=0;exitX=0;exitY=0;exitDx=0;exitDy=0;" parent="f3HSBoVWFk1KG22zI1eR-1" source="f3HSBoVWFk1KG22zI1eR-7" target="f3HSBoVWFk1KG22zI1eR-4" edge="1">
                    <mxGeometry width="50" height="50" relative="1" as="geometry">
                        <mxPoint x="440" y="250" as="sourcePoint"/>
                        <mxPoint x="490" y="200" as="targetPoint"/>
                    </mxGeometry>
                </mxCell>
                <mxCell id="f3HSBoVWFk1KG22zI1eR-9" value="9" style="ellipse;whiteSpace=wrap;html=1;aspect=fixed;" parent="f3HSBoVWFk1KG22zI1eR-1" vertex="1">
                    <mxGeometry x="497.2033982822018" y="218.39339828220182" width="30" height="30" as="geometry"/>
                </mxCell>
                <mxCell id="f3HSBoVWFk1KG22zI1eR-10" value="" style="endArrow=none;html=1;entryX=1;entryY=1;entryDx=0;entryDy=0;exitX=0;exitY=0;exitDx=0;exitDy=0;" parent="f3HSBoVWFk1KG22zI1eR-1" source="f3HSBoVWFk1KG22zI1eR-9" target="f3HSBoVWFk1KG22zI1eR-7" edge="1">
                    <mxGeometry width="50" height="50" relative="1" as="geometry">
                        <mxPoint x="597.2033982822018" y="298.3933982822018" as="sourcePoint"/>
                        <mxPoint x="482.81" y="204" as="targetPoint"/>
                    </mxGeometry>
                </mxCell>
                <mxCell id="f3HSBoVWFk1KG22zI1eR-11" value="2" style="ellipse;whiteSpace=wrap;html=1;aspect=fixed;" parent="f3HSBoVWFk1KG22zI1eR-1" vertex="1">
                    <mxGeometry x="215.61" y="214.39339828220182" width="30" height="30" as="geometry"/>
                </mxCell>
                <mxCell id="f3HSBoVWFk1KG22zI1eR-12" value="" style="endArrow=none;html=1;entryX=0;entryY=1;entryDx=0;entryDy=0;exitX=1;exitY=0;exitDx=0;exitDy=0;" parent="f3HSBoVWFk1KG22zI1eR-1" source="f3HSBoVWFk1KG22zI1eR-11" target="f3HSBoVWFk1KG22zI1eR-5" edge="1">
                    <mxGeometry width="50" height="50" relative="1" as="geometry">
                        <mxPoint x="275.61" y="274.3933982822018" as="sourcePoint"/>
                        <mxPoint x="260.00339828220183" y="200" as="targetPoint"/>
                    </mxGeometry>
                </mxCell>
                <mxCell id="f3HSBoVWFk1KG22zI1eR-13" value="1" style="ellipse;whiteSpace=wrap;html=1;aspect=fixed;" parent="f3HSBoVWFk1KG22zI1eR-1" vertex="1">
                    <mxGeometry x="172" y="258.7833982822018" width="30" height="30" as="geometry"/>
                </mxCell>
                <mxCell id="f3HSBoVWFk1KG22zI1eR-14" value="" style="endArrow=none;html=1;entryX=0;entryY=1;entryDx=0;entryDy=0;exitX=1;exitY=0;exitDx=0;exitDy=0;" parent="f3HSBoVWFk1KG22zI1eR-1" source="f3HSBoVWFk1KG22zI1eR-13" target="f3HSBoVWFk1KG22zI1eR-11" edge="1">
                    <mxGeometry width="50" height="50" relative="1" as="geometry">
                        <mxPoint x="232" y="318.7833982822018" as="sourcePoint"/>
                        <mxPoint x="216.39339828220182" y="244.39" as="targetPoint"/>
                    </mxGeometry>
                </mxCell>
                <mxCell id="f3HSBoVWFk1KG22zI1eR-15" value="4" style="ellipse;whiteSpace=wrap;html=1;aspect=fixed;" parent="f3HSBoVWFk1KG22zI1eR-1" vertex="1">
                    <mxGeometry x="304.3933982822018" y="214.39339828220182" width="30" height="30" as="geometry"/>
                </mxCell>
                <mxCell id="f3HSBoVWFk1KG22zI1eR-16" value="" style="endArrow=none;html=1;entryX=1;entryY=1;entryDx=0;entryDy=0;exitX=0;exitY=0;exitDx=0;exitDy=0;" parent="f3HSBoVWFk1KG22zI1eR-1" source="f3HSBoVWFk1KG22zI1eR-15" target="f3HSBoVWFk1KG22zI1eR-5" edge="1">
                    <mxGeometry width="50" height="50" relative="1" as="geometry">
                        <mxPoint x="404.3933982822018" y="294.3933982822018" as="sourcePoint"/>
                        <mxPoint x="290" y="200" as="targetPoint"/>
                    </mxGeometry>
                </mxCell>
                <mxCell id="f3HSBoVWFk1KG22zI1eR-17" value="7" style="ellipse;whiteSpace=wrap;html=1;aspect=fixed;" parent="f3HSBoVWFk1KG22zI1eR-1" vertex="1">
                    <mxGeometry x="409.42" y="218.39339828220182" width="30" height="30" as="geometry"/>
                </mxCell>
                <mxCell id="f3HSBoVWFk1KG22zI1eR-18" value="" style="endArrow=none;html=1;entryX=0;entryY=1;entryDx=0;entryDy=0;exitX=1;exitY=0;exitDx=0;exitDy=0;" parent="f3HSBoVWFk1KG22zI1eR-1" source="f3HSBoVWFk1KG22zI1eR-17" target="f3HSBoVWFk1KG22zI1eR-7" edge="1">
                    <mxGeometry width="50" height="50" relative="1" as="geometry">
                        <mxPoint x="469.42" y="278.3933982822018" as="sourcePoint"/>
                        <mxPoint x="453.81339828220183" y="204" as="targetPoint"/>
                    </mxGeometry>
                </mxCell>
                <mxCell id="f3HSBoVWFk1KG22zI1eR-19" value="6" style="ellipse;whiteSpace=wrap;html=1;aspect=fixed;" parent="f3HSBoVWFk1KG22zI1eR-1" vertex="1">
                    <mxGeometry x="367" y="262.7833982822018" width="30" height="30" as="geometry"/>
                </mxCell>
                <mxCell id="f3HSBoVWFk1KG22zI1eR-20" value="" style="endArrow=none;html=1;entryX=0;entryY=1;entryDx=0;entryDy=0;exitX=1;exitY=0;exitDx=0;exitDy=0;" parent="f3HSBoVWFk1KG22zI1eR-1" source="f3HSBoVWFk1KG22zI1eR-19" target="f3HSBoVWFk1KG22zI1eR-17" edge="1">
                    <mxGeometry width="50" height="50" relative="1" as="geometry">
                        <mxPoint x="427" y="322.7833982822018" as="sourcePoint"/>
                        <mxPoint x="411.3933982822018" y="248.39" as="targetPoint"/>
                    </mxGeometry>
                </mxCell>
                <mxCell id="f3HSBoVWFk1KG22zI1eR-21" value="B" style="text;html=1;strokeColor=none;fillColor=none;align=center;verticalAlign=middle;whiteSpace=wrap;rounded=0;dashed=1;" parent="f3HSBoVWFk1KG22zI1eR-1" vertex="1">
                    <mxGeometry x="307" y="276" width="32" height="21" as="geometry"/>
                </mxCell>
                <mxCell id="f3HSBoVWFk1KG22zI1eR-22" value="A" style="text;html=1;strokeColor=none;fillColor=none;align=center;verticalAlign=middle;whiteSpace=wrap;rounded=0;dashed=1;" parent="f3HSBoVWFk1KG22zI1eR-1" vertex="1">
                    <mxGeometry x="412" y="277" width="34" height="20" as="geometry"/>
                </mxCell>
            </root>
        </mxGraphModel>
    </diagram>
    <diagram id="S6SKQF04crIef8Q6dtMO" name="Page-6">
        <mxGraphModel dx="461" dy="510" grid="0" gridSize="10" guides="1" tooltips="1" connect="1" arrows="1" fold="1" page="1" pageScale="1" pageWidth="827" pageHeight="1169" math="0" shadow="0">
            <root>
                <mxCell id="GSgSTofUxGry9vgnZQIL-0"/>
                <mxCell id="GSgSTofUxGry9vgnZQIL-1" parent="GSgSTofUxGry9vgnZQIL-0"/>
                <mxCell id="GSgSTofUxGry9vgnZQIL-3" value="" style="rounded=0;whiteSpace=wrap;html=1;dashed=1;" parent="GSgSTofUxGry9vgnZQIL-1" vertex="1">
                    <mxGeometry x="138" y="264" width="175" height="134" as="geometry"/>
                </mxCell>
                <mxCell id="GSgSTofUxGry9vgnZQIL-4" value="5" style="ellipse;whiteSpace=wrap;html=1;aspect=fixed;" parent="GSgSTofUxGry9vgnZQIL-1" vertex="1">
                    <mxGeometry x="283" y="221.39" width="30" height="30" as="geometry"/>
                </mxCell>
                <mxCell id="GSgSTofUxGry9vgnZQIL-5" value="3" style="ellipse;whiteSpace=wrap;html=1;aspect=fixed;" parent="GSgSTofUxGry9vgnZQIL-1" vertex="1">
                    <mxGeometry x="234" y="271" width="30" height="30" as="geometry"/>
                </mxCell>
                <mxCell id="GSgSTofUxGry9vgnZQIL-6" value="" style="endArrow=none;html=1;entryX=0;entryY=1;entryDx=0;entryDy=0;exitX=1;exitY=0;exitDx=0;exitDy=0;" parent="GSgSTofUxGry9vgnZQIL-1" source="GSgSTofUxGry9vgnZQIL-5" target="GSgSTofUxGry9vgnZQIL-4" edge="1">
                    <mxGeometry width="50" height="50" relative="1" as="geometry">
                        <mxPoint x="294" y="331" as="sourcePoint"/>
                        <mxPoint x="344" y="281" as="targetPoint"/>
                    </mxGeometry>
                </mxCell>
                <mxCell id="GSgSTofUxGry9vgnZQIL-7" value="8" style="ellipse;whiteSpace=wrap;html=1;aspect=fixed;fillColor=#f8cecc;strokeColor=#b85450;" parent="GSgSTofUxGry9vgnZQIL-1" vertex="1">
                    <mxGeometry x="326.61" y="177" width="30" height="30" as="geometry"/>
                </mxCell>
                <mxCell id="GSgSTofUxGry9vgnZQIL-8" value="" style="endArrow=none;html=1;entryX=1;entryY=0;entryDx=0;entryDy=0;exitX=0;exitY=1;exitDx=0;exitDy=0;" parent="GSgSTofUxGry9vgnZQIL-1" source="GSgSTofUxGry9vgnZQIL-7" target="GSgSTofUxGry9vgnZQIL-4" edge="1">
                    <mxGeometry width="50" height="50" relative="1" as="geometry">
                        <mxPoint x="388.61" y="369" as="sourcePoint"/>
                        <mxPoint x="438.61" y="319" as="targetPoint"/>
                    </mxGeometry>
                </mxCell>
                <mxCell id="GSgSTofUxGry9vgnZQIL-9" value="9" style="ellipse;whiteSpace=wrap;html=1;aspect=fixed;" parent="GSgSTofUxGry9vgnZQIL-1" vertex="1">
                    <mxGeometry x="370.00339828220183" y="221.39339828220182" width="30" height="30" as="geometry"/>
                </mxCell>
                <mxCell id="GSgSTofUxGry9vgnZQIL-10" value="" style="endArrow=none;html=1;entryX=1;entryY=1;entryDx=0;entryDy=0;exitX=0;exitY=0;exitDx=0;exitDy=0;" parent="GSgSTofUxGry9vgnZQIL-1" source="GSgSTofUxGry9vgnZQIL-9" target="GSgSTofUxGry9vgnZQIL-7" edge="1">
                    <mxGeometry width="50" height="50" relative="1" as="geometry">
                        <mxPoint x="470.00339828220183" y="301.3933982822018" as="sourcePoint"/>
                        <mxPoint x="355.61" y="207" as="targetPoint"/>
                    </mxGeometry>
                </mxCell>
                <mxCell id="GSgSTofUxGry9vgnZQIL-11" value="2" style="ellipse;whiteSpace=wrap;html=1;aspect=fixed;" parent="GSgSTofUxGry9vgnZQIL-1" vertex="1">
                    <mxGeometry x="189.61" y="315.3933982822018" width="30" height="30" as="geometry"/>
                </mxCell>
                <mxCell id="GSgSTofUxGry9vgnZQIL-12" value="" style="endArrow=none;html=1;entryX=0;entryY=1;entryDx=0;entryDy=0;exitX=1;exitY=0;exitDx=0;exitDy=0;" parent="GSgSTofUxGry9vgnZQIL-1" source="GSgSTofUxGry9vgnZQIL-11" target="GSgSTofUxGry9vgnZQIL-5" edge="1">
                    <mxGeometry width="50" height="50" relative="1" as="geometry">
                        <mxPoint x="249.61" y="375.3933982822018" as="sourcePoint"/>
                        <mxPoint x="234.00339828220183" y="301" as="targetPoint"/>
                    </mxGeometry>
                </mxCell>
                <mxCell id="GSgSTofUxGry9vgnZQIL-13" value="1" style="ellipse;whiteSpace=wrap;html=1;aspect=fixed;" parent="GSgSTofUxGry9vgnZQIL-1" vertex="1">
                    <mxGeometry x="146" y="359.7833982822018" width="30" height="30" as="geometry"/>
                </mxCell>
                <mxCell id="GSgSTofUxGry9vgnZQIL-14" value="" style="endArrow=none;html=1;entryX=0;entryY=1;entryDx=0;entryDy=0;exitX=1;exitY=0;exitDx=0;exitDy=0;" parent="GSgSTofUxGry9vgnZQIL-1" source="GSgSTofUxGry9vgnZQIL-13" target="GSgSTofUxGry9vgnZQIL-11" edge="1">
                    <mxGeometry width="50" height="50" relative="1" as="geometry">
                        <mxPoint x="206" y="419.7833982822018" as="sourcePoint"/>
                        <mxPoint x="190.39339828220182" y="345.39" as="targetPoint"/>
                    </mxGeometry>
                </mxCell>
                <mxCell id="GSgSTofUxGry9vgnZQIL-15" value="4" style="ellipse;whiteSpace=wrap;html=1;aspect=fixed;" parent="GSgSTofUxGry9vgnZQIL-1" vertex="1">
                    <mxGeometry x="278.3933982822018" y="315.3933982822018" width="30" height="30" as="geometry"/>
                </mxCell>
                <mxCell id="GSgSTofUxGry9vgnZQIL-16" value="" style="endArrow=none;html=1;entryX=1;entryY=1;entryDx=0;entryDy=0;exitX=0;exitY=0;exitDx=0;exitDy=0;" parent="GSgSTofUxGry9vgnZQIL-1" source="GSgSTofUxGry9vgnZQIL-15" target="GSgSTofUxGry9vgnZQIL-5" edge="1">
                    <mxGeometry width="50" height="50" relative="1" as="geometry">
                        <mxPoint x="378.3933982822018" y="395.3933982822018" as="sourcePoint"/>
                        <mxPoint x="264" y="301" as="targetPoint"/>
                    </mxGeometry>
                </mxCell>
                <mxCell id="GSgSTofUxGry9vgnZQIL-21" value="B" style="text;html=1;strokeColor=none;fillColor=none;align=center;verticalAlign=middle;whiteSpace=wrap;rounded=0;dashed=1;" parent="GSgSTofUxGry9vgnZQIL-1" vertex="1">
                    <mxGeometry x="281" y="377" width="32" height="21" as="geometry"/>
                </mxCell>
            </root>
        </mxGraphModel>
    </diagram>
    <diagram id="kpTiNH_KRcveyapHwJom" name="Page-7">
        <mxGraphModel dx="461" dy="510" grid="0" gridSize="10" guides="1" tooltips="1" connect="1" arrows="1" fold="1" page="1" pageScale="1" pageWidth="827" pageHeight="1169" math="0" shadow="0">
            <root>
                <mxCell id="XNErq6SzIbevVr0vjvJQ-0"/>
                <mxCell id="XNErq6SzIbevVr0vjvJQ-1" parent="XNErq6SzIbevVr0vjvJQ-0"/>
                <mxCell id="XNErq6SzIbevVr0vjvJQ-2" value="" style="rounded=0;whiteSpace=wrap;html=1;dashed=1;" parent="XNErq6SzIbevVr0vjvJQ-1" vertex="1">
                    <mxGeometry x="138" y="264" width="175" height="134" as="geometry"/>
                </mxCell>
                <mxCell id="XNErq6SzIbevVr0vjvJQ-3" value="5" style="ellipse;whiteSpace=wrap;html=1;aspect=fixed;" parent="XNErq6SzIbevVr0vjvJQ-1" vertex="1">
                    <mxGeometry x="308.39" y="197.39" width="30" height="30" as="geometry"/>
                </mxCell>
                <mxCell id="XNErq6SzIbevVr0vjvJQ-4" value="3" style="ellipse;whiteSpace=wrap;html=1;aspect=fixed;" parent="XNErq6SzIbevVr0vjvJQ-1" vertex="1">
                    <mxGeometry x="234" y="271" width="30" height="30" as="geometry"/>
                </mxCell>
                <mxCell id="XNErq6SzIbevVr0vjvJQ-5" value="" style="endArrow=none;html=1;entryX=0;entryY=1;entryDx=0;entryDy=0;exitX=1;exitY=0;exitDx=0;exitDy=0;" parent="XNErq6SzIbevVr0vjvJQ-1" source="XNErq6SzIbevVr0vjvJQ-4" target="XNErq6SzIbevVr0vjvJQ-3" edge="1">
                    <mxGeometry width="50" height="50" relative="1" as="geometry">
                        <mxPoint x="294" y="331" as="sourcePoint"/>
                        <mxPoint x="344" y="281" as="targetPoint"/>
                    </mxGeometry>
                </mxCell>
                <mxCell id="XNErq6SzIbevVr0vjvJQ-6" value="8" style="ellipse;whiteSpace=wrap;html=1;aspect=fixed;fillColor=#f8cecc;strokeColor=#b85450;" parent="XNErq6SzIbevVr0vjvJQ-1" vertex="1">
                    <mxGeometry x="352" y="153" width="30" height="30" as="geometry"/>
                </mxCell>
                <mxCell id="XNErq6SzIbevVr0vjvJQ-7" value="" style="endArrow=none;html=1;entryX=1;entryY=0;entryDx=0;entryDy=0;exitX=0;exitY=1;exitDx=0;exitDy=0;" parent="XNErq6SzIbevVr0vjvJQ-1" source="XNErq6SzIbevVr0vjvJQ-6" target="XNErq6SzIbevVr0vjvJQ-3" edge="1">
                    <mxGeometry width="50" height="50" relative="1" as="geometry">
                        <mxPoint x="414" y="345" as="sourcePoint"/>
                        <mxPoint x="464" y="295" as="targetPoint"/>
                    </mxGeometry>
                </mxCell>
                <mxCell id="XNErq6SzIbevVr0vjvJQ-8" value="9" style="ellipse;whiteSpace=wrap;html=1;aspect=fixed;" parent="XNErq6SzIbevVr0vjvJQ-1" vertex="1">
                    <mxGeometry x="395.3933982822018" y="197.39339828220182" width="30" height="30" as="geometry"/>
                </mxCell>
                <mxCell id="XNErq6SzIbevVr0vjvJQ-9" value="" style="endArrow=none;html=1;entryX=1;entryY=1;entryDx=0;entryDy=0;exitX=0;exitY=0;exitDx=0;exitDy=0;" parent="XNErq6SzIbevVr0vjvJQ-1" source="XNErq6SzIbevVr0vjvJQ-8" target="XNErq6SzIbevVr0vjvJQ-6" edge="1">
                    <mxGeometry width="50" height="50" relative="1" as="geometry">
                        <mxPoint x="495.3933982822018" y="277.3933982822018" as="sourcePoint"/>
                        <mxPoint x="381" y="183" as="targetPoint"/>
                    </mxGeometry>
                </mxCell>
                <mxCell id="XNErq6SzIbevVr0vjvJQ-10" value="2" style="ellipse;whiteSpace=wrap;html=1;aspect=fixed;" parent="XNErq6SzIbevVr0vjvJQ-1" vertex="1">
                    <mxGeometry x="189.61" y="315.3933982822018" width="30" height="30" as="geometry"/>
                </mxCell>
                <mxCell id="XNErq6SzIbevVr0vjvJQ-11" value="" style="endArrow=none;html=1;entryX=0;entryY=1;entryDx=0;entryDy=0;exitX=1;exitY=0;exitDx=0;exitDy=0;" parent="XNErq6SzIbevVr0vjvJQ-1" source="XNErq6SzIbevVr0vjvJQ-10" target="XNErq6SzIbevVr0vjvJQ-4" edge="1">
                    <mxGeometry width="50" height="50" relative="1" as="geometry">
                        <mxPoint x="249.61" y="375.3933982822018" as="sourcePoint"/>
                        <mxPoint x="234.00339828220183" y="301" as="targetPoint"/>
                    </mxGeometry>
                </mxCell>
                <mxCell id="XNErq6SzIbevVr0vjvJQ-12" value="1" style="ellipse;whiteSpace=wrap;html=1;aspect=fixed;" parent="XNErq6SzIbevVr0vjvJQ-1" vertex="1">
                    <mxGeometry x="146" y="359.7833982822018" width="30" height="30" as="geometry"/>
                </mxCell>
                <mxCell id="XNErq6SzIbevVr0vjvJQ-13" value="" style="endArrow=none;html=1;entryX=0;entryY=1;entryDx=0;entryDy=0;exitX=1;exitY=0;exitDx=0;exitDy=0;" parent="XNErq6SzIbevVr0vjvJQ-1" source="XNErq6SzIbevVr0vjvJQ-12" target="XNErq6SzIbevVr0vjvJQ-10" edge="1">
                    <mxGeometry width="50" height="50" relative="1" as="geometry">
                        <mxPoint x="206" y="419.7833982822018" as="sourcePoint"/>
                        <mxPoint x="190.39339828220182" y="345.39" as="targetPoint"/>
                    </mxGeometry>
                </mxCell>
                <mxCell id="XNErq6SzIbevVr0vjvJQ-14" value="4" style="ellipse;whiteSpace=wrap;html=1;aspect=fixed;" parent="XNErq6SzIbevVr0vjvJQ-1" vertex="1">
                    <mxGeometry x="278.3933982822018" y="315.3933982822018" width="30" height="30" as="geometry"/>
                </mxCell>
                <mxCell id="XNErq6SzIbevVr0vjvJQ-15" value="" style="endArrow=none;html=1;entryX=1;entryY=1;entryDx=0;entryDy=0;exitX=0;exitY=0;exitDx=0;exitDy=0;" parent="XNErq6SzIbevVr0vjvJQ-1" source="XNErq6SzIbevVr0vjvJQ-14" target="XNErq6SzIbevVr0vjvJQ-4" edge="1">
                    <mxGeometry width="50" height="50" relative="1" as="geometry">
                        <mxPoint x="378.3933982822018" y="395.3933982822018" as="sourcePoint"/>
                        <mxPoint x="264" y="301" as="targetPoint"/>
                    </mxGeometry>
                </mxCell>
                <mxCell id="XNErq6SzIbevVr0vjvJQ-16" value="B" style="text;html=1;strokeColor=none;fillColor=none;align=center;verticalAlign=middle;whiteSpace=wrap;rounded=0;dashed=1;" parent="XNErq6SzIbevVr0vjvJQ-1" vertex="1">
                    <mxGeometry x="281" y="377" width="32" height="21" as="geometry"/>
                </mxCell>
                <mxCell id="-V7brKPELiv_qt4_LE_M-0" value="" style="rounded=0;whiteSpace=wrap;html=1;dashed=1;" parent="XNErq6SzIbevVr0vjvJQ-1" vertex="1">
                    <mxGeometry x="338.39" y="262.39" width="85" height="83" as="geometry"/>
                </mxCell>
                <mxCell id="-V7brKPELiv_qt4_LE_M-1" value="7" style="ellipse;whiteSpace=wrap;html=1;aspect=fixed;" parent="XNErq6SzIbevVr0vjvJQ-1" vertex="1">
                    <mxGeometry x="389.39" y="271.00339828220183" width="30" height="30" as="geometry"/>
                </mxCell>
                <mxCell id="-V7brKPELiv_qt4_LE_M-2" value="" style="endArrow=none;html=1;entryX=1;entryY=1;entryDx=0;entryDy=0;exitX=0;exitY=0;exitDx=0;exitDy=0;" parent="XNErq6SzIbevVr0vjvJQ-1" source="-V7brKPELiv_qt4_LE_M-1" target="XNErq6SzIbevVr0vjvJQ-3" edge="1">
                    <mxGeometry width="50" height="50" relative="1" as="geometry">
                        <mxPoint x="440.42" y="331.7833982822018" as="sourcePoint"/>
                        <mxPoint x="429.20339828220176" y="252.99660171779817" as="targetPoint"/>
                    </mxGeometry>
                </mxCell>
                <mxCell id="-V7brKPELiv_qt4_LE_M-3" value="6" style="ellipse;whiteSpace=wrap;html=1;aspect=fixed;" parent="XNErq6SzIbevVr0vjvJQ-1" vertex="1">
                    <mxGeometry x="344.39" y="311.1733982822018" width="30" height="30" as="geometry"/>
                </mxCell>
                <mxCell id="-V7brKPELiv_qt4_LE_M-4" value="" style="endArrow=none;html=1;entryX=0;entryY=1;entryDx=0;entryDy=0;exitX=1;exitY=0;exitDx=0;exitDy=0;" parent="XNErq6SzIbevVr0vjvJQ-1" source="-V7brKPELiv_qt4_LE_M-3" target="-V7brKPELiv_qt4_LE_M-1" edge="1">
                    <mxGeometry width="50" height="50" relative="1" as="geometry">
                        <mxPoint x="404.39" y="371.1733982822018" as="sourcePoint"/>
                        <mxPoint x="388.7833982822018" y="296.78" as="targetPoint"/>
                    </mxGeometry>
                </mxCell>
                <mxCell id="-V7brKPELiv_qt4_LE_M-5" value="A" style="text;html=1;strokeColor=none;fillColor=none;align=center;verticalAlign=middle;whiteSpace=wrap;rounded=0;dashed=1;" parent="XNErq6SzIbevVr0vjvJQ-1" vertex="1">
                    <mxGeometry x="389.39" y="325.39" width="34" height="20" as="geometry"/>
                </mxCell>
            </root>
        </mxGraphModel>
    </diagram>
    <diagram id="HxU4jI_pgLax7QA8Zv7P" name="Page-8">
        <mxGraphModel dx="461" dy="510" grid="1" gridSize="10" guides="1" tooltips="1" connect="1" arrows="1" fold="1" page="1" pageScale="1" pageWidth="827" pageHeight="1169" math="0" shadow="0">
            <root>
                <mxCell id="KUUt8wwrTvR7ku2JOUWE-0"/>
                <mxCell id="KUUt8wwrTvR7ku2JOUWE-1" parent="KUUt8wwrTvR7ku2JOUWE-0"/>
                <mxCell id="NdwYpIW9sIhGr1o9Ll8L-0" value="A" style="rounded=0;whiteSpace=wrap;html=1;dashed=1;" parent="KUUt8wwrTvR7ku2JOUWE-1" vertex="1">
                    <mxGeometry x="260" y="258.78" width="36.61" height="30" as="geometry"/>
                </mxCell>
                <mxCell id="KUUt8wwrTvR7ku2JOUWE-2" value="5" style="ellipse;whiteSpace=wrap;html=1;aspect=fixed;" parent="KUUt8wwrTvR7ku2JOUWE-1" vertex="1">
                    <mxGeometry x="354.19" y="100" width="30" height="30" as="geometry"/>
                </mxCell>
                <mxCell id="KUUt8wwrTvR7ku2JOUWE-3" value="3" style="ellipse;whiteSpace=wrap;html=1;aspect=fixed;" parent="KUUt8wwrTvR7ku2JOUWE-1" vertex="1">
                    <mxGeometry x="260" y="170" width="30" height="30" as="geometry"/>
                </mxCell>
                <mxCell id="KUUt8wwrTvR7ku2JOUWE-4" value="" style="endArrow=none;html=1;entryX=0;entryY=1;entryDx=0;entryDy=0;exitX=1;exitY=0;exitDx=0;exitDy=0;" parent="KUUt8wwrTvR7ku2JOUWE-1" source="KUUt8wwrTvR7ku2JOUWE-3" target="KUUt8wwrTvR7ku2JOUWE-2" edge="1">
                    <mxGeometry width="50" height="50" relative="1" as="geometry">
                        <mxPoint x="320" y="230" as="sourcePoint"/>
                        <mxPoint x="370" y="180" as="targetPoint"/>
                    </mxGeometry>
                </mxCell>
                <mxCell id="KUUt8wwrTvR7ku2JOUWE-5" value="8" style="ellipse;whiteSpace=wrap;html=1;aspect=fixed;" parent="KUUt8wwrTvR7ku2JOUWE-1" vertex="1">
                    <mxGeometry x="453.81" y="174" width="30" height="30" as="geometry"/>
                </mxCell>
                <mxCell id="KUUt8wwrTvR7ku2JOUWE-6" value="" style="endArrow=none;html=1;entryX=1;entryY=1;entryDx=0;entryDy=0;exitX=0;exitY=0;exitDx=0;exitDy=0;" parent="KUUt8wwrTvR7ku2JOUWE-1" source="KUUt8wwrTvR7ku2JOUWE-5" target="KUUt8wwrTvR7ku2JOUWE-2" edge="1">
                    <mxGeometry width="50" height="50" relative="1" as="geometry">
                        <mxPoint x="440" y="250" as="sourcePoint"/>
                        <mxPoint x="490" y="200" as="targetPoint"/>
                    </mxGeometry>
                </mxCell>
                <mxCell id="KUUt8wwrTvR7ku2JOUWE-7" value="9" style="ellipse;whiteSpace=wrap;html=1;aspect=fixed;" parent="KUUt8wwrTvR7ku2JOUWE-1" vertex="1">
                    <mxGeometry x="497.2033982822018" y="218.39339828220182" width="30" height="30" as="geometry"/>
                </mxCell>
                <mxCell id="KUUt8wwrTvR7ku2JOUWE-8" value="" style="endArrow=none;html=1;entryX=1;entryY=1;entryDx=0;entryDy=0;exitX=0;exitY=0;exitDx=0;exitDy=0;" parent="KUUt8wwrTvR7ku2JOUWE-1" source="KUUt8wwrTvR7ku2JOUWE-7" target="KUUt8wwrTvR7ku2JOUWE-5" edge="1">
                    <mxGeometry width="50" height="50" relative="1" as="geometry">
                        <mxPoint x="597.2033982822018" y="298.3933982822018" as="sourcePoint"/>
                        <mxPoint x="482.81" y="204" as="targetPoint"/>
                    </mxGeometry>
                </mxCell>
                <mxCell id="KUUt8wwrTvR7ku2JOUWE-9" value="2" style="ellipse;whiteSpace=wrap;html=1;aspect=fixed;fillColor=#f8cecc;strokeColor=#b85450;" parent="KUUt8wwrTvR7ku2JOUWE-1" vertex="1">
                    <mxGeometry x="215.61" y="214.39339828220182" width="30" height="30" as="geometry"/>
                </mxCell>
                <mxCell id="KUUt8wwrTvR7ku2JOUWE-10" value="" style="endArrow=none;html=1;entryX=0;entryY=1;entryDx=0;entryDy=0;exitX=1;exitY=0;exitDx=0;exitDy=0;" parent="KUUt8wwrTvR7ku2JOUWE-1" source="KUUt8wwrTvR7ku2JOUWE-9" target="KUUt8wwrTvR7ku2JOUWE-3" edge="1">
                    <mxGeometry width="50" height="50" relative="1" as="geometry">
                        <mxPoint x="275.61" y="274.3933982822018" as="sourcePoint"/>
                        <mxPoint x="260.00339828220183" y="200" as="targetPoint"/>
                    </mxGeometry>
                </mxCell>
                <mxCell id="KUUt8wwrTvR7ku2JOUWE-11" value="1" style="ellipse;whiteSpace=wrap;html=1;aspect=fixed;" parent="KUUt8wwrTvR7ku2JOUWE-1" vertex="1">
                    <mxGeometry x="172" y="258.7833982822018" width="30" height="30" as="geometry"/>
                </mxCell>
                <mxCell id="KUUt8wwrTvR7ku2JOUWE-12" value="" style="endArrow=none;html=1;entryX=0;entryY=1;entryDx=0;entryDy=0;exitX=1;exitY=0;exitDx=0;exitDy=0;" parent="KUUt8wwrTvR7ku2JOUWE-1" source="KUUt8wwrTvR7ku2JOUWE-11" target="KUUt8wwrTvR7ku2JOUWE-9" edge="1">
                    <mxGeometry width="50" height="50" relative="1" as="geometry">
                        <mxPoint x="232" y="318.7833982822018" as="sourcePoint"/>
                        <mxPoint x="216.39339828220182" y="244.39" as="targetPoint"/>
                    </mxGeometry>
                </mxCell>
                <mxCell id="KUUt8wwrTvR7ku2JOUWE-13" value="4" style="ellipse;whiteSpace=wrap;html=1;aspect=fixed;" parent="KUUt8wwrTvR7ku2JOUWE-1" vertex="1">
                    <mxGeometry x="304.3933982822018" y="214.39339828220182" width="30" height="30" as="geometry"/>
                </mxCell>
                <mxCell id="KUUt8wwrTvR7ku2JOUWE-14" value="" style="endArrow=none;html=1;entryX=1;entryY=1;entryDx=0;entryDy=0;exitX=0;exitY=0;exitDx=0;exitDy=0;" parent="KUUt8wwrTvR7ku2JOUWE-1" source="KUUt8wwrTvR7ku2JOUWE-13" target="KUUt8wwrTvR7ku2JOUWE-3" edge="1">
                    <mxGeometry width="50" height="50" relative="1" as="geometry">
                        <mxPoint x="404.3933982822018" y="294.3933982822018" as="sourcePoint"/>
                        <mxPoint x="290" y="200" as="targetPoint"/>
                    </mxGeometry>
                </mxCell>
                <mxCell id="KUUt8wwrTvR7ku2JOUWE-15" value="7" style="ellipse;whiteSpace=wrap;html=1;aspect=fixed;" parent="KUUt8wwrTvR7ku2JOUWE-1" vertex="1">
                    <mxGeometry x="409.42" y="218.39339828220182" width="30" height="30" as="geometry"/>
                </mxCell>
                <mxCell id="KUUt8wwrTvR7ku2JOUWE-16" value="" style="endArrow=none;html=1;entryX=0;entryY=1;entryDx=0;entryDy=0;exitX=1;exitY=0;exitDx=0;exitDy=0;" parent="KUUt8wwrTvR7ku2JOUWE-1" source="KUUt8wwrTvR7ku2JOUWE-15" target="KUUt8wwrTvR7ku2JOUWE-5" edge="1">
                    <mxGeometry width="50" height="50" relative="1" as="geometry">
                        <mxPoint x="469.42" y="278.3933982822018" as="sourcePoint"/>
                        <mxPoint x="453.81339828220183" y="204" as="targetPoint"/>
                    </mxGeometry>
                </mxCell>
                <mxCell id="KUUt8wwrTvR7ku2JOUWE-17" value="6" style="ellipse;whiteSpace=wrap;html=1;aspect=fixed;" parent="KUUt8wwrTvR7ku2JOUWE-1" vertex="1">
                    <mxGeometry x="367" y="262.7833982822018" width="30" height="30" as="geometry"/>
                </mxCell>
                <mxCell id="KUUt8wwrTvR7ku2JOUWE-18" value="" style="endArrow=none;html=1;entryX=0;entryY=1;entryDx=0;entryDy=0;exitX=1;exitY=0;exitDx=0;exitDy=0;" parent="KUUt8wwrTvR7ku2JOUWE-1" source="KUUt8wwrTvR7ku2JOUWE-17" target="KUUt8wwrTvR7ku2JOUWE-15" edge="1">
                    <mxGeometry width="50" height="50" relative="1" as="geometry">
                        <mxPoint x="427" y="322.7833982822018" as="sourcePoint"/>
                        <mxPoint x="411.3933982822018" y="248.39" as="targetPoint"/>
                    </mxGeometry>
                </mxCell>
                <mxCell id="NdwYpIW9sIhGr1o9Ll8L-1" value="" style="endArrow=none;dashed=1;html=1;exitX=1;exitY=1;exitDx=0;exitDy=0;entryX=0;entryY=0;entryDx=0;entryDy=0;" parent="KUUt8wwrTvR7ku2JOUWE-1" source="KUUt8wwrTvR7ku2JOUWE-9" target="NdwYpIW9sIhGr1o9Ll8L-0" edge="1">
                    <mxGeometry width="50" height="50" relative="1" as="geometry">
                        <mxPoint x="240" y="370" as="sourcePoint"/>
                        <mxPoint x="290" y="320" as="targetPoint"/>
                    </mxGeometry>
                </mxCell>
            </root>
        </mxGraphModel>
    </diagram>
    <diagram id="Kd8CE7UF3eemvGS16wnE" name="Page-9">
        <mxGraphModel dx="461" dy="510" grid="1" gridSize="10" guides="1" tooltips="1" connect="1" arrows="1" fold="1" page="1" pageScale="1" pageWidth="827" pageHeight="1169" math="0" shadow="0">
            <root>
                <mxCell id="rlt7frP7AnkodSO47E0b-0"/>
                <mxCell id="rlt7frP7AnkodSO47E0b-1" parent="rlt7frP7AnkodSO47E0b-0"/>
                <mxCell id="rlt7frP7AnkodSO47E0b-2" value="5" style="ellipse;whiteSpace=wrap;html=1;aspect=fixed;" parent="rlt7frP7AnkodSO47E0b-1" vertex="1">
                    <mxGeometry x="282.19" y="90" width="30" height="30" as="geometry"/>
                </mxCell>
                <mxCell id="rlt7frP7AnkodSO47E0b-3" value="3" style="ellipse;whiteSpace=wrap;html=1;aspect=fixed;" parent="rlt7frP7AnkodSO47E0b-1" vertex="1">
                    <mxGeometry x="210" y="208.39" width="30" height="30" as="geometry"/>
                </mxCell>
                <mxCell id="rlt7frP7AnkodSO47E0b-4" value="" style="endArrow=none;html=1;entryX=0;entryY=1;entryDx=0;entryDy=0;exitX=1;exitY=0;exitDx=0;exitDy=0;" parent="rlt7frP7AnkodSO47E0b-1" source="rlt7frP7AnkodSO47E0b-9" target="rlt7frP7AnkodSO47E0b-2" edge="1">
                    <mxGeometry width="50" height="50" relative="1" as="geometry">
                        <mxPoint x="248" y="220" as="sourcePoint"/>
                        <mxPoint x="298" y="170" as="targetPoint"/>
                    </mxGeometry>
                </mxCell>
                <mxCell id="rlt7frP7AnkodSO47E0b-5" value="8" style="ellipse;whiteSpace=wrap;html=1;aspect=fixed;" parent="rlt7frP7AnkodSO47E0b-1" vertex="1">
                    <mxGeometry x="381.81" y="164" width="30" height="30" as="geometry"/>
                </mxCell>
                <mxCell id="rlt7frP7AnkodSO47E0b-6" value="" style="endArrow=none;html=1;entryX=1;entryY=1;entryDx=0;entryDy=0;exitX=0;exitY=0;exitDx=0;exitDy=0;" parent="rlt7frP7AnkodSO47E0b-1" source="rlt7frP7AnkodSO47E0b-5" target="rlt7frP7AnkodSO47E0b-2" edge="1">
                    <mxGeometry width="50" height="50" relative="1" as="geometry">
                        <mxPoint x="368" y="240" as="sourcePoint"/>
                        <mxPoint x="418" y="190" as="targetPoint"/>
                    </mxGeometry>
                </mxCell>
                <mxCell id="rlt7frP7AnkodSO47E0b-7" value="9" style="ellipse;whiteSpace=wrap;html=1;aspect=fixed;" parent="rlt7frP7AnkodSO47E0b-1" vertex="1">
                    <mxGeometry x="425.2033982822018" y="208.39339828220182" width="30" height="30" as="geometry"/>
                </mxCell>
                <mxCell id="rlt7frP7AnkodSO47E0b-8" value="" style="endArrow=none;html=1;entryX=1;entryY=1;entryDx=0;entryDy=0;exitX=0;exitY=0;exitDx=0;exitDy=0;" parent="rlt7frP7AnkodSO47E0b-1" source="rlt7frP7AnkodSO47E0b-7" target="rlt7frP7AnkodSO47E0b-5" edge="1">
                    <mxGeometry width="50" height="50" relative="1" as="geometry">
                        <mxPoint x="525.2033982822018" y="288.3933982822018" as="sourcePoint"/>
                        <mxPoint x="410.81" y="194" as="targetPoint"/>
                    </mxGeometry>
                </mxCell>
                <mxCell id="rlt7frP7AnkodSO47E0b-9" value="2" style="ellipse;whiteSpace=wrap;html=1;aspect=fixed;fillColor=#f8cecc;strokeColor=#b85450;" parent="rlt7frP7AnkodSO47E0b-1" vertex="1">
                    <mxGeometry x="170" y="164.00339828220183" width="30" height="30" as="geometry"/>
                </mxCell>
                <mxCell id="rlt7frP7AnkodSO47E0b-10" value="" style="endArrow=none;html=1;entryX=0;entryY=0;entryDx=0;entryDy=0;exitX=1;exitY=1;exitDx=0;exitDy=0;" parent="rlt7frP7AnkodSO47E0b-1" source="rlt7frP7AnkodSO47E0b-9" target="rlt7frP7AnkodSO47E0b-3" edge="1">
                    <mxGeometry width="50" height="50" relative="1" as="geometry">
                        <mxPoint x="203.61" y="264.3933982822018" as="sourcePoint"/>
                        <mxPoint x="188.00339828220183" y="190" as="targetPoint"/>
                    </mxGeometry>
                </mxCell>
                <mxCell id="rlt7frP7AnkodSO47E0b-11" value="1" style="ellipse;whiteSpace=wrap;html=1;aspect=fixed;" parent="rlt7frP7AnkodSO47E0b-1" vertex="1">
                    <mxGeometry x="130" y="208.39339828220182" width="30" height="30" as="geometry"/>
                </mxCell>
                <mxCell id="rlt7frP7AnkodSO47E0b-12" value="" style="endArrow=none;html=1;entryX=0;entryY=1;entryDx=0;entryDy=0;exitX=1;exitY=0;exitDx=0;exitDy=0;" parent="rlt7frP7AnkodSO47E0b-1" source="rlt7frP7AnkodSO47E0b-11" target="rlt7frP7AnkodSO47E0b-9" edge="1">
                    <mxGeometry width="50" height="50" relative="1" as="geometry">
                        <mxPoint x="160" y="308.7833982822018" as="sourcePoint"/>
                        <mxPoint x="144.39339828220182" y="234.39" as="targetPoint"/>
                    </mxGeometry>
                </mxCell>
                <mxCell id="rlt7frP7AnkodSO47E0b-13" value="4" style="ellipse;whiteSpace=wrap;html=1;aspect=fixed;" parent="rlt7frP7AnkodSO47E0b-1" vertex="1">
                    <mxGeometry x="252.19339828220183" y="252.7833982822018" width="30" height="30" as="geometry"/>
                </mxCell>
                <mxCell id="rlt7frP7AnkodSO47E0b-14" value="" style="endArrow=none;html=1;entryX=1;entryY=1;entryDx=0;entryDy=0;exitX=0;exitY=0;exitDx=0;exitDy=0;" parent="rlt7frP7AnkodSO47E0b-1" source="rlt7frP7AnkodSO47E0b-13" target="rlt7frP7AnkodSO47E0b-3" edge="1">
                    <mxGeometry width="50" height="50" relative="1" as="geometry">
                        <mxPoint x="332.3933982822018" y="284.3933982822018" as="sourcePoint"/>
                        <mxPoint x="218" y="190" as="targetPoint"/>
                    </mxGeometry>
                </mxCell>
                <mxCell id="rlt7frP7AnkodSO47E0b-15" value="7" style="ellipse;whiteSpace=wrap;html=1;aspect=fixed;" parent="rlt7frP7AnkodSO47E0b-1" vertex="1">
                    <mxGeometry x="337.42" y="208.39339828220182" width="30" height="30" as="geometry"/>
                </mxCell>
                <mxCell id="rlt7frP7AnkodSO47E0b-16" value="" style="endArrow=none;html=1;entryX=0;entryY=1;entryDx=0;entryDy=0;exitX=1;exitY=0;exitDx=0;exitDy=0;" parent="rlt7frP7AnkodSO47E0b-1" source="rlt7frP7AnkodSO47E0b-15" target="rlt7frP7AnkodSO47E0b-5" edge="1">
                    <mxGeometry width="50" height="50" relative="1" as="geometry">
                        <mxPoint x="397.42" y="268.3933982822018" as="sourcePoint"/>
                        <mxPoint x="381.81339828220183" y="194" as="targetPoint"/>
                    </mxGeometry>
                </mxCell>
                <mxCell id="rlt7frP7AnkodSO47E0b-17" value="6" style="ellipse;whiteSpace=wrap;html=1;aspect=fixed;" parent="rlt7frP7AnkodSO47E0b-1" vertex="1">
                    <mxGeometry x="295" y="252.7833982822018" width="30" height="30" as="geometry"/>
                </mxCell>
                <mxCell id="rlt7frP7AnkodSO47E0b-18" value="" style="endArrow=none;html=1;entryX=0;entryY=1;entryDx=0;entryDy=0;exitX=1;exitY=0;exitDx=0;exitDy=0;" parent="rlt7frP7AnkodSO47E0b-1" source="rlt7frP7AnkodSO47E0b-17" target="rlt7frP7AnkodSO47E0b-15" edge="1">
                    <mxGeometry width="50" height="50" relative="1" as="geometry">
                        <mxPoint x="355" y="312.7833982822018" as="sourcePoint"/>
                        <mxPoint x="339.3933982822018" y="238.39" as="targetPoint"/>
                    </mxGeometry>
                </mxCell>
                <mxCell id="hBJszcDTHThOYwIphfj0-0" value="A" style="rounded=0;whiteSpace=wrap;html=1;dashed=1;" parent="rlt7frP7AnkodSO47E0b-1" vertex="1">
                    <mxGeometry x="160" y="252.78" width="36.61" height="30" as="geometry"/>
                </mxCell>
                <mxCell id="hBJszcDTHThOYwIphfj0-1" value="" style="endArrow=none;dashed=1;html=1;exitX=0;exitY=1;exitDx=0;exitDy=0;entryX=1;entryY=0;entryDx=0;entryDy=0;" parent="rlt7frP7AnkodSO47E0b-1" source="rlt7frP7AnkodSO47E0b-3" target="hBJszcDTHThOYwIphfj0-0" edge="1">
                    <mxGeometry width="50" height="50" relative="1" as="geometry">
                        <mxPoint x="241.2166017177982" y="240" as="sourcePoint"/>
                        <mxPoint x="290" y="320" as="targetPoint"/>
                    </mxGeometry>
                </mxCell>
            </root>
        </mxGraphModel>
    </diagram>
</mxfile>